<mxfile host="app.diagrams.net" modified="2021-06-01T22:11:40.076Z" agent="5.0 (X11; Linux x86_64) AppleWebKit/537.36 (KHTML, like Gecko) Chrome/90.0.4430.93 Safari/537.36" etag="XEoNQawgvWhgU8dkLk8N" version="14.7.2" type="github">
  <diagram id="STw_41gi9h3a2NrgZt3Z" name="Page-1">
    <mxGraphModel dx="2249" dy="833" grid="1" gridSize="10" guides="1" tooltips="1" connect="1" arrows="1" fold="1" page="1" pageScale="1" pageWidth="827" pageHeight="1169" math="0" shadow="0">
      <root>
        <mxCell id="0" />
        <mxCell id="1" parent="0" />
        <mxCell id="y1B0KtI4p2Kf77Tuc4uG-5" value="" style="edgeStyle=orthogonalEdgeStyle;rounded=0;orthogonalLoop=1;jettySize=auto;html=1;" parent="1" source="pdaAdz_XjBSu1e7UFX2R-1" target="y1B0KtI4p2Kf77Tuc4uG-1" edge="1">
          <mxGeometry relative="1" as="geometry" />
        </mxCell>
        <mxCell id="y1B0KtI4p2Kf77Tuc4uG-39" style="edgeStyle=orthogonalEdgeStyle;rounded=0;orthogonalLoop=1;jettySize=auto;html=1;entryX=0.5;entryY=0;entryDx=0;entryDy=0;" parent="1" source="pdaAdz_XjBSu1e7UFX2R-1" target="y1B0KtI4p2Kf77Tuc4uG-38" edge="1">
          <mxGeometry relative="1" as="geometry">
            <Array as="points">
              <mxPoint x="414" y="140" />
              <mxPoint x="1160" y="140" />
              <mxPoint x="1160" y="180" />
            </Array>
          </mxGeometry>
        </mxCell>
        <mxCell id="JrEHm9Qh_ha4KLBkT9_c-2" style="edgeStyle=orthogonalEdgeStyle;rounded=0;orthogonalLoop=1;jettySize=auto;html=1;" edge="1" parent="1" source="pdaAdz_XjBSu1e7UFX2R-1" target="JrEHm9Qh_ha4KLBkT9_c-1">
          <mxGeometry relative="1" as="geometry">
            <Array as="points">
              <mxPoint x="414" y="140" />
              <mxPoint x="-320" y="140" />
            </Array>
          </mxGeometry>
        </mxCell>
        <mxCell id="pdaAdz_XjBSu1e7UFX2R-1" value="Hola, ¿En qué te puedo ayudar?" style="ellipse;whiteSpace=wrap;html=1;" parent="1" vertex="1">
          <mxGeometry x="354" y="40" width="120" height="80" as="geometry" />
        </mxCell>
        <mxCell id="y1B0KtI4p2Kf77Tuc4uG-6" value="" style="edgeStyle=orthogonalEdgeStyle;rounded=0;orthogonalLoop=1;jettySize=auto;html=1;" parent="1" source="y1B0KtI4p2Kf77Tuc4uG-1" target="y1B0KtI4p2Kf77Tuc4uG-4" edge="1">
          <mxGeometry relative="1" as="geometry" />
        </mxCell>
        <mxCell id="y1B0KtI4p2Kf77Tuc4uG-1" value="Resumen de Cuenta" style="rounded=1;whiteSpace=wrap;html=1;" parent="1" vertex="1">
          <mxGeometry x="354" y="180" width="120" height="60" as="geometry" />
        </mxCell>
        <mxCell id="y1B0KtI4p2Kf77Tuc4uG-8" style="edgeStyle=orthogonalEdgeStyle;rounded=0;orthogonalLoop=1;jettySize=auto;html=1;entryX=0.5;entryY=0;entryDx=0;entryDy=0;" parent="1" source="y1B0KtI4p2Kf77Tuc4uG-3" target="y1B0KtI4p2Kf77Tuc4uG-7" edge="1">
          <mxGeometry relative="1" as="geometry">
            <Array as="points">
              <mxPoint x="414" y="490" />
              <mxPoint x="140" y="490" />
            </Array>
          </mxGeometry>
        </mxCell>
        <mxCell id="y1B0KtI4p2Kf77Tuc4uG-10" style="edgeStyle=orthogonalEdgeStyle;rounded=0;orthogonalLoop=1;jettySize=auto;html=1;" parent="1" source="y1B0KtI4p2Kf77Tuc4uG-3" target="y1B0KtI4p2Kf77Tuc4uG-9" edge="1">
          <mxGeometry relative="1" as="geometry" />
        </mxCell>
        <mxCell id="y1B0KtI4p2Kf77Tuc4uG-13" style="edgeStyle=orthogonalEdgeStyle;rounded=0;orthogonalLoop=1;jettySize=auto;html=1;" parent="1" source="y1B0KtI4p2Kf77Tuc4uG-3" target="y1B0KtI4p2Kf77Tuc4uG-11" edge="1">
          <mxGeometry relative="1" as="geometry">
            <Array as="points">
              <mxPoint x="414" y="490" />
              <mxPoint x="680" y="490" />
            </Array>
          </mxGeometry>
        </mxCell>
        <mxCell id="y1B0KtI4p2Kf77Tuc4uG-3" value="&lt;div&gt;Decime tu DNI sin espacios ni puntos. Por ej. 28444444&lt;/div&gt;" style="ellipse;whiteSpace=wrap;html=1;" parent="1" vertex="1">
          <mxGeometry x="354" y="390" width="120" height="80" as="geometry" />
        </mxCell>
        <mxCell id="y1B0KtI4p2Kf77Tuc4uG-4" value="&lt;div&gt;Para darte esta información necesito que sigamos unos pasos.&lt;/div&gt;" style="ellipse;whiteSpace=wrap;html=1;" parent="1" vertex="1">
          <mxGeometry x="354" y="320" width="120" height="80" as="geometry" />
        </mxCell>
        <mxCell id="y1B0KtI4p2Kf77Tuc4uG-26" value="" style="edgeStyle=orthogonalEdgeStyle;rounded=0;orthogonalLoop=1;jettySize=auto;html=1;" parent="1" source="y1B0KtI4p2Kf77Tuc4uG-7" target="y1B0KtI4p2Kf77Tuc4uG-25" edge="1">
          <mxGeometry relative="1" as="geometry" />
        </mxCell>
        <mxCell id="y1B0KtI4p2Kf77Tuc4uG-7" value="28655407 -&amp;nbsp;&lt;br&gt;Titular" style="rounded=1;whiteSpace=wrap;html=1;" parent="1" vertex="1">
          <mxGeometry x="80" y="560" width="120" height="60" as="geometry" />
        </mxCell>
        <mxCell id="y1B0KtI4p2Kf77Tuc4uG-23" value="" style="edgeStyle=orthogonalEdgeStyle;rounded=0;orthogonalLoop=1;jettySize=auto;html=1;" parent="1" source="y1B0KtI4p2Kf77Tuc4uG-9" target="y1B0KtI4p2Kf77Tuc4uG-20" edge="1">
          <mxGeometry relative="1" as="geometry" />
        </mxCell>
        <mxCell id="y1B0KtI4p2Kf77Tuc4uG-9" value="Adicional" style="rounded=1;whiteSpace=wrap;html=1;" parent="1" vertex="1">
          <mxGeometry x="354" y="560" width="120" height="60" as="geometry" />
        </mxCell>
        <mxCell id="y1B0KtI4p2Kf77Tuc4uG-35" value="" style="edgeStyle=orthogonalEdgeStyle;rounded=0;orthogonalLoop=1;jettySize=auto;html=1;" parent="1" source="y1B0KtI4p2Kf77Tuc4uG-11" target="y1B0KtI4p2Kf77Tuc4uG-34" edge="1">
          <mxGeometry relative="1" as="geometry" />
        </mxCell>
        <mxCell id="y1B0KtI4p2Kf77Tuc4uG-11" value="No registrado" style="rounded=1;whiteSpace=wrap;html=1;" parent="1" vertex="1">
          <mxGeometry x="620" y="560" width="120" height="60" as="geometry" />
        </mxCell>
        <mxCell id="y1B0KtI4p2Kf77Tuc4uG-37" value="" style="edgeStyle=orthogonalEdgeStyle;rounded=0;orthogonalLoop=1;jettySize=auto;html=1;" parent="1" source="y1B0KtI4p2Kf77Tuc4uG-20" target="y1B0KtI4p2Kf77Tuc4uG-36" edge="1">
          <mxGeometry relative="1" as="geometry" />
        </mxCell>
        <mxCell id="y1B0KtI4p2Kf77Tuc4uG-20" value="Para conocer el detalle de tus consumos ingresá a &amp;lt;a href=&quot;https://bit.ly/NaranjaOnline&quot; target=&quot;_blank&quot;&amp;gt;https://bit.ly/NaranjaOnline&amp;lt;/a&amp;gt; opción Tu cuenta &amp;gt; Consumos recientes." style="whiteSpace=wrap;html=1;align=center;verticalAlign=middle;" parent="1" vertex="1">
          <mxGeometry x="274" y="700" width="280" height="170" as="geometry" />
        </mxCell>
        <mxCell id="y1B0KtI4p2Kf77Tuc4uG-25" value="&lt;div&gt;¿Qué mes necesitás?&lt;/div&gt;" style="ellipse;whiteSpace=wrap;html=1;" parent="1" vertex="1">
          <mxGeometry x="80" y="700" width="120" height="80" as="geometry" />
        </mxCell>
        <mxCell id="y1B0KtI4p2Kf77Tuc4uG-29" value="" style="edgeStyle=orthogonalEdgeStyle;rounded=0;orthogonalLoop=1;jettySize=auto;html=1;" parent="1" source="y1B0KtI4p2Kf77Tuc4uG-27" target="y1B0KtI4p2Kf77Tuc4uG-28" edge="1">
          <mxGeometry relative="1" as="geometry" />
        </mxCell>
        <mxCell id="y1B0KtI4p2Kf77Tuc4uG-27" value="&lt;div&gt;- Abril&lt;/div&gt;&lt;div&gt;- Mayo&lt;/div&gt;&lt;div&gt;- Otros&lt;/div&gt;" style="ellipse;whiteSpace=wrap;html=1;" parent="1" vertex="1">
          <mxGeometry x="80" y="770" width="120" height="80" as="geometry" />
        </mxCell>
        <mxCell id="y1B0KtI4p2Kf77Tuc4uG-31" value="" style="edgeStyle=orthogonalEdgeStyle;rounded=0;orthogonalLoop=1;jettySize=auto;html=1;" parent="1" source="y1B0KtI4p2Kf77Tuc4uG-28" target="y1B0KtI4p2Kf77Tuc4uG-30" edge="1">
          <mxGeometry relative="1" as="geometry" />
        </mxCell>
        <mxCell id="y1B0KtI4p2Kf77Tuc4uG-28" value="Te envié los últimos seis resúmenes a tu email. Recordá que la contraseña para verlo son los últimos seis dígitos de tu DNI." style="whiteSpace=wrap;html=1;align=center;verticalAlign=middle;" parent="1" vertex="1">
          <mxGeometry y="940" width="280" height="70" as="geometry" />
        </mxCell>
        <mxCell id="y1B0KtI4p2Kf77Tuc4uG-33" value="" style="edgeStyle=orthogonalEdgeStyle;rounded=0;orthogonalLoop=1;jettySize=auto;html=1;" parent="1" source="y1B0KtI4p2Kf77Tuc4uG-30" target="y1B0KtI4p2Kf77Tuc4uG-32" edge="1">
          <mxGeometry relative="1" as="geometry" />
        </mxCell>
        <mxCell id="y1B0KtI4p2Kf77Tuc4uG-30" value="&lt;div&gt;Para pagar tus resúmenes ingresá a s.naranja.com/TuOnline&lt;/div&gt;&lt;div&gt;o s.naranja.com/NaranjaAPP&lt;/div&gt;" style="whiteSpace=wrap;html=1;align=center;verticalAlign=middle;" parent="1" vertex="1">
          <mxGeometry y="1010" width="280" height="70" as="geometry" />
        </mxCell>
        <mxCell id="y1B0KtI4p2Kf77Tuc4uG-32" value="PAC" style="shape=tape;whiteSpace=wrap;html=1;align=center;verticalAlign=middle;" parent="1" vertex="1">
          <mxGeometry x="80" y="1160" width="120" height="100" as="geometry" />
        </mxCell>
        <mxCell id="y1B0KtI4p2Kf77Tuc4uG-34" value="El DNI {dni} no se encuentra registrado en nuestro sistema." style="whiteSpace=wrap;html=1;align=center;verticalAlign=middle;" parent="1" vertex="1">
          <mxGeometry x="580" y="700" width="200" height="100" as="geometry" />
        </mxCell>
        <mxCell id="y1B0KtI4p2Kf77Tuc4uG-36" value="PAC" style="shape=tape;whiteSpace=wrap;html=1;align=center;verticalAlign=middle;" parent="1" vertex="1">
          <mxGeometry x="354" y="940" width="120" height="100" as="geometry" />
        </mxCell>
        <mxCell id="y1B0KtI4p2Kf77Tuc4uG-42" value="" style="edgeStyle=orthogonalEdgeStyle;rounded=0;orthogonalLoop=1;jettySize=auto;html=1;" parent="1" source="y1B0KtI4p2Kf77Tuc4uG-38" target="y1B0KtI4p2Kf77Tuc4uG-41" edge="1">
          <mxGeometry relative="1" as="geometry" />
        </mxCell>
        <mxCell id="y1B0KtI4p2Kf77Tuc4uG-38" value="Seguimiento de tarjeta" style="rounded=1;whiteSpace=wrap;html=1;" parent="1" vertex="1">
          <mxGeometry x="1100" y="180" width="120" height="60" as="geometry" />
        </mxCell>
        <mxCell id="y1B0KtI4p2Kf77Tuc4uG-45" style="edgeStyle=orthogonalEdgeStyle;rounded=0;orthogonalLoop=1;jettySize=auto;html=1;" parent="1" source="y1B0KtI4p2Kf77Tuc4uG-40" target="y1B0KtI4p2Kf77Tuc4uG-48" edge="1">
          <mxGeometry relative="1" as="geometry">
            <mxPoint x="1040" y="560" as="targetPoint" />
            <Array as="points">
              <mxPoint x="1160" y="490" />
              <mxPoint x="1030" y="490" />
            </Array>
          </mxGeometry>
        </mxCell>
        <mxCell id="y1B0KtI4p2Kf77Tuc4uG-50" value="Registrado" style="edgeLabel;html=1;align=center;verticalAlign=middle;resizable=0;points=[];" parent="y1B0KtI4p2Kf77Tuc4uG-45" vertex="1" connectable="0">
          <mxGeometry x="0.2667" relative="1" as="geometry">
            <mxPoint x="33" as="offset" />
          </mxGeometry>
        </mxCell>
        <mxCell id="y1B0KtI4p2Kf77Tuc4uG-46" style="edgeStyle=orthogonalEdgeStyle;rounded=0;orthogonalLoop=1;jettySize=auto;html=1;entryX=0.5;entryY=0;entryDx=0;entryDy=0;" parent="1" source="y1B0KtI4p2Kf77Tuc4uG-40" target="y1B0KtI4p2Kf77Tuc4uG-47" edge="1">
          <mxGeometry relative="1" as="geometry">
            <mxPoint x="1290" y="560" as="targetPoint" />
            <Array as="points">
              <mxPoint x="1160" y="490" />
              <mxPoint x="1290" y="490" />
            </Array>
          </mxGeometry>
        </mxCell>
        <mxCell id="y1B0KtI4p2Kf77Tuc4uG-49" value="No Registrado" style="edgeLabel;html=1;align=center;verticalAlign=middle;resizable=0;points=[];" parent="y1B0KtI4p2Kf77Tuc4uG-46" vertex="1" connectable="0">
          <mxGeometry x="0.1727" y="4" relative="1" as="geometry">
            <mxPoint x="-28" y="4" as="offset" />
          </mxGeometry>
        </mxCell>
        <mxCell id="y1B0KtI4p2Kf77Tuc4uG-40" value="&lt;div&gt;Decime tu DNI sin espacios ni puntos. Por ej. 28444444&lt;/div&gt;" style="ellipse;whiteSpace=wrap;html=1;" parent="1" vertex="1">
          <mxGeometry x="1100" y="390" width="120" height="80" as="geometry" />
        </mxCell>
        <mxCell id="y1B0KtI4p2Kf77Tuc4uG-41" value="&lt;div&gt;Para darte esta información necesito que sigamos unos pasos.&lt;/div&gt;" style="ellipse;whiteSpace=wrap;html=1;" parent="1" vertex="1">
          <mxGeometry x="1100" y="320" width="120" height="80" as="geometry" />
        </mxCell>
        <mxCell id="y1B0KtI4p2Kf77Tuc4uG-47" value="El DNI {dni} no se encuentra registrado en nuestro sistema.&amp;nbsp;" style="whiteSpace=wrap;html=1;align=center;verticalAlign=middle;" parent="1" vertex="1">
          <mxGeometry x="1190" y="560" width="200" height="100" as="geometry" />
        </mxCell>
        <mxCell id="y1B0KtI4p2Kf77Tuc4uG-52" value="" style="edgeStyle=orthogonalEdgeStyle;rounded=0;orthogonalLoop=1;jettySize=auto;html=1;" parent="1" source="y1B0KtI4p2Kf77Tuc4uG-48" target="y1B0KtI4p2Kf77Tuc4uG-51" edge="1">
          <mxGeometry relative="1" as="geometry" />
        </mxCell>
        <mxCell id="y1B0KtI4p2Kf77Tuc4uG-48" value="El estado de la tarjeta es: {status}" style="whiteSpace=wrap;html=1;align=center;verticalAlign=middle;" parent="1" vertex="1">
          <mxGeometry x="930" y="560" width="200" height="100" as="geometry" />
        </mxCell>
        <mxCell id="y1B0KtI4p2Kf77Tuc4uG-51" value="PAC" style="shape=tape;whiteSpace=wrap;html=1;align=center;verticalAlign=middle;" parent="1" vertex="1">
          <mxGeometry x="970" y="750" width="120" height="100" as="geometry" />
        </mxCell>
        <mxCell id="y1B0KtI4p2Kf77Tuc4uG-53" value="Compruebe que sea correcto e intente nuevamente" style="whiteSpace=wrap;html=1;align=center;verticalAlign=middle;" parent="1" vertex="1">
          <mxGeometry x="1190" y="660" width="200" height="100" as="geometry" />
        </mxCell>
        <mxCell id="JrEHm9Qh_ha4KLBkT9_c-4" style="edgeStyle=orthogonalEdgeStyle;rounded=0;orthogonalLoop=1;jettySize=auto;html=1;" edge="1" parent="1" source="JrEHm9Qh_ha4KLBkT9_c-1" target="JrEHm9Qh_ha4KLBkT9_c-3">
          <mxGeometry relative="1" as="geometry" />
        </mxCell>
        <mxCell id="JrEHm9Qh_ha4KLBkT9_c-1" value="Solicitud de tarjeta" style="rounded=1;whiteSpace=wrap;html=1;" vertex="1" parent="1">
          <mxGeometry x="-380" y="180" width="120" height="60" as="geometry" />
        </mxCell>
        <mxCell id="JrEHm9Qh_ha4KLBkT9_c-3" value="¡Qué bueno que quieras tu Naranja! Completá tu solicitud acá https://bit.ly/QuieroMiNaranja y en el momento te contamos si la podés tener." style="whiteSpace=wrap;html=1;align=center;verticalAlign=middle;" vertex="1" parent="1">
          <mxGeometry x="-460" y="320" width="280" height="170" as="geometry" />
        </mxCell>
      </root>
    </mxGraphModel>
  </diagram>
</mxfile>
